<svg width="169" height="16" viewBox="0 0 169 16" fill="none" xmlns="http://www.w3.org/2000/svg">
<g clip-path="url(#clip0_1_405)">
<path d="M10.6161 11.6696L11.9286 5.48214C11.9821 5.22024 11.9509 5.03274 11.8348 4.91964C11.7187 4.80655 11.5655 4.78571 11.375 4.85714L3.66071 7.83036C3.48809 7.89583 3.37054 7.97024 3.30804 8.05357C3.24554 8.13691 3.2381 8.21577 3.28571 8.29018C3.33333 8.36458 3.42857 8.42262 3.57143 8.46429L5.54464 9.08036L10.125 6.19643C10.25 6.11309 10.3452 6.09524 10.4107 6.14286C10.4524 6.17262 10.4405 6.21726 10.375 6.27679L6.66964 9.625L6.52679 11.6607C6.66369 11.6607 6.79762 11.5952 6.92857 11.4643L7.89286 10.5357L9.89286 12.0089C10.2738 12.2232 10.5149 12.1101 10.6161 11.6696ZM15.3661 4.89286C15.7887 5.88096 16 6.91666 16 8C16 9.08334 15.7887 10.119 15.3661 11.1071C14.9435 12.0952 14.375 12.9464 13.6607 13.6607C12.9464 14.375 12.0952 14.9435 11.1071 15.3661C10.119 15.7887 9.08334 16 8 16C6.91666 16 5.88096 15.7887 4.89286 15.3661C3.90476 14.9435 3.05358 14.375 2.33929 13.6607C1.625 12.9464 1.05655 12.0952 0.633929 11.1071C0.211307 10.119 0 9.08334 0 8C0 6.91666 0.211307 5.88096 0.633929 4.89286C1.05655 3.90476 1.625 3.05358 2.33929 2.33929C3.05358 1.625 3.90476 1.05655 4.89286 0.633929C5.88096 0.211307 6.91666 0 8 0C9.08334 0 10.119 0.211307 11.1071 0.633929C12.0952 1.05655 12.9464 1.625 13.6607 2.33929C14.375 3.05358 14.9435 3.90476 15.3661 4.89286Z" fill="#9CA0AB"/>
</g>
<g clip-path="url(#clip1_1_405)">
<path d="M37.8854 9.88542C38.4063 9.36458 38.6667 8.73611 38.6667 8C38.6667 7.26389 38.4063 6.63542 37.8854 6.11458C37.3646 5.59375 36.7361 5.33333 36 5.33333C35.2639 5.33333 34.6354 5.59375 34.1146 6.11458C33.5937 6.63542 33.3333 7.26389 33.3333 8C33.3333 8.73611 33.5937 9.36458 34.1146 9.88542C34.6354 10.4063 35.2639 10.6667 36 10.6667C36.7361 10.6667 37.3646 10.4063 37.8854 9.88542ZM38.9062 5.09375C39.7049 5.89236 40.1042 6.8611 40.1042 8C40.1042 9.13889 39.7049 10.1076 38.9062 10.9062C38.1076 11.7049 37.1389 12.1042 36 12.1042C34.8611 12.1042 33.8924 11.7049 33.0938 10.9062C32.2951 10.1076 31.8958 9.13889 31.8958 8C31.8958 6.8611 32.2951 5.89236 33.0938 5.09375C33.8924 4.29514 34.8611 3.89583 36 3.89583C37.1389 3.89583 38.1076 4.29514 38.9062 5.09375ZM40.9479 3.05208C41.1354 3.23958 41.2292 3.46528 41.2292 3.72917C41.2292 3.99306 41.1354 4.21875 40.9479 4.40625C40.7604 4.59375 40.5347 4.6875 40.2708 4.6875C40.0069 4.6875 39.7813 4.59375 39.5938 4.40625C39.4062 4.21875 39.3125 3.99306 39.3125 3.72917C39.3125 3.46528 39.4062 3.23958 39.5938 3.05208C39.7813 2.86458 40.0069 2.77083 40.2708 2.77083C40.5347 2.77083 40.7604 2.86458 40.9479 3.05208ZM36.7917 1.4375C36.3125 1.4375 36.0486 1.4375 36 1.4375C35.9514 1.4375 35.6858 1.43576 35.2031 1.43229C34.7205 1.42882 34.3542 1.42882 34.1042 1.43229C33.8542 1.43576 33.5191 1.44618 33.099 1.46354C32.6788 1.4809 32.3212 1.51562 32.026 1.56771C31.7309 1.61979 31.4826 1.68403 31.2812 1.76042C30.934 1.89931 30.6285 2.10069 30.3646 2.36458C30.1007 2.62847 29.8993 2.93403 29.7604 3.28125C29.684 3.48264 29.6198 3.7309 29.5677 4.02604C29.5156 4.32118 29.4809 4.67882 29.4635 5.09896C29.4462 5.5191 29.4358 5.85417 29.4323 6.10417C29.4288 6.35417 29.4288 6.72048 29.4323 7.20313C29.4358 7.68577 29.4375 7.95139 29.4375 8C29.4375 8.04861 29.4358 8.31423 29.4323 8.79688C29.4288 9.27952 29.4288 9.64583 29.4323 9.89583C29.4358 10.1458 29.4462 10.4809 29.4635 10.901C29.4809 11.3212 29.5156 11.6788 29.5677 11.974C29.6198 12.2691 29.684 12.5174 29.7604 12.7188C29.8993 13.066 30.1007 13.3715 30.3646 13.6354C30.6285 13.8993 30.934 14.1007 31.2812 14.2396C31.4826 14.316 31.7309 14.3802 32.026 14.4323C32.3212 14.4844 32.6788 14.5191 33.099 14.5365C33.5191 14.5538 33.8542 14.5642 34.1042 14.5677C34.3542 14.5712 34.7205 14.5712 35.2031 14.5677C35.6858 14.5642 35.9514 14.5625 36 14.5625C36.0486 14.5625 36.3142 14.5642 36.7969 14.5677C37.2795 14.5712 37.6458 14.5712 37.8958 14.5677C38.1458 14.5642 38.4809 14.5538 38.901 14.5365C39.3212 14.5191 39.6788 14.4844 39.974 14.4323C40.2691 14.3802 40.5174 14.316 40.7188 14.2396C41.066 14.1007 41.3715 13.8993 41.6354 13.6354C41.8993 13.3715 42.1007 13.066 42.2396 12.7188C42.316 12.5174 42.3802 12.2691 42.4323 11.974C42.4844 11.6788 42.5191 11.3212 42.5365 10.901C42.5538 10.4809 42.5642 10.1458 42.5677 9.89583C42.5712 9.64583 42.5712 9.27952 42.5677 8.79688C42.5642 8.31423 42.5625 8.04861 42.5625 8C42.5625 7.95139 42.5642 7.68577 42.5677 7.20313C42.5712 6.72048 42.5712 6.35417 42.5677 6.10417C42.5642 5.85417 42.5538 5.5191 42.5365 5.09896C42.5191 4.67882 42.4844 4.32118 42.4323 4.02604C42.3802 3.7309 42.316 3.48264 42.2396 3.28125C42.1007 2.93403 41.8993 2.62847 41.6354 2.36458C41.3715 2.10069 41.066 1.89931 40.7188 1.76042C40.5174 1.68403 40.2691 1.61979 39.974 1.56771C39.6788 1.51562 39.3212 1.4809 38.901 1.46354C38.4809 1.44618 38.1458 1.43576 37.8958 1.43229C37.6458 1.42882 37.2778 1.43056 36.7917 1.4375ZM43.9479 4.69792C43.9826 5.30903 44 6.40971 44 8C44 9.59029 43.9826 10.691 43.9479 11.3021C43.8785 12.7465 43.4479 13.8646 42.6562 14.6562C41.8646 15.4479 40.7465 15.8785 39.3021 15.9479C38.691 15.9826 37.5903 16 36 16C34.4097 16 33.309 15.9826 32.6979 15.9479C31.2535 15.8785 30.1354 15.4479 29.3438 14.6562C28.5521 13.8646 28.1215 12.7465 28.0521 11.3021C28.0174 10.691 28 9.59029 28 8C28 6.40971 28.0174 5.30903 28.0521 4.69792C28.1215 3.25346 28.5521 2.13542 29.3438 1.34375C30.1354 0.552079 31.2535 0.121528 32.6979 0.0520833C33.309 0.0173609 34.4097 0 36 0C37.5903 0 38.691 0.0173609 39.3021 0.0520833C40.7465 0.121528 41.8646 0.552079 42.6562 1.34375C43.4479 2.13542 43.8785 3.25346 43.9479 4.69792Z" fill="#9CA0AB"/>
</g>
<g clip-path="url(#clip2_1_405)">
<path d="M64 0C59.5817 0 56 3.58167 56 8C56 12.4183 59.5817 16 64 16C68.4183 16 72 12.4183 72 8C72 3.58167 68.4183 0 64 0ZM67.0767 9.02583C67.0767 9.02583 67.7842 9.72417 67.9583 10.0483C67.9633 10.055 67.9658 10.0617 67.9675 10.065C68.0383 10.1842 68.055 10.2767 68.02 10.3458C67.9617 10.4608 67.7617 10.5175 67.6933 10.5225H66.4433C66.3567 10.5225 66.175 10.5 65.955 10.3483C65.7858 10.23 65.6192 10.0358 65.4567 9.84667C65.2142 9.565 65.0042 9.32167 64.7925 9.32167C64.7656 9.32162 64.7389 9.32584 64.7133 9.33417C64.5533 9.38583 64.3483 9.61417 64.3483 10.2225C64.3483 10.4125 64.1983 10.5217 64.0925 10.5217H63.52C63.325 10.5217 62.3092 10.4533 61.4092 9.50417C60.3075 8.34167 59.3158 6.01 59.3075 5.98833C59.245 5.8375 59.3742 5.75667 59.515 5.75667H60.7775C60.9458 5.75667 61.0008 5.85917 61.0392 5.95C61.0842 6.05583 61.2492 6.47667 61.52 6.95C61.9592 7.72167 62.2283 8.035 62.4442 8.035C62.4846 8.03452 62.5244 8.02423 62.56 8.005C62.8417 7.84833 62.7892 6.84417 62.7767 6.63583C62.7767 6.59667 62.7758 6.18667 62.6317 5.99C62.5283 5.8475 62.3525 5.79333 62.2458 5.77333C62.289 5.71376 62.3459 5.66545 62.4117 5.6325C62.605 5.53583 62.9533 5.52167 63.2992 5.52167H63.4917C63.8667 5.52667 63.9633 5.55083 64.0992 5.585C64.3742 5.65083 64.38 5.82833 64.3558 6.43583C64.3483 6.60833 64.3408 6.80333 64.3408 7.03333C64.3408 7.08333 64.3383 7.13667 64.3383 7.19333C64.33 7.5025 64.32 7.85333 64.5383 7.9975C64.5668 8.01536 64.5997 8.02488 64.6333 8.025C64.7092 8.025 64.9375 8.025 65.5558 6.96417C65.7465 6.62271 65.9122 6.2679 66.0517 5.9025C66.0642 5.88083 66.1008 5.81417 66.1442 5.78833C66.1761 5.77203 66.2116 5.76374 66.2475 5.76417H67.7317C67.8933 5.76417 68.0042 5.78833 68.025 5.85083C68.0617 5.95 68.0183 6.2525 67.3408 7.17L67.0383 7.56917C66.4242 8.37417 66.4242 8.415 67.0767 9.02583Z" fill="#9CA0AB"/>
</g>
<g clip-path="url(#clip3_1_405)">
<path d="M99.6671 4.33797C99.5765 4.01479 99.4 3.7222 99.1564 3.4913C98.9059 3.25331 98.5989 3.08306 98.2644 2.99664C97.0124 2.66664 91.9964 2.66664 91.9964 2.66664C89.9053 2.64284 87.8147 2.74749 85.7364 2.97997C85.4019 3.07278 85.0955 3.24683 84.8444 3.48664C84.5977 3.72397 84.4191 4.01664 84.3257 4.3373C84.1015 5.54513 83.9926 6.77153 84.0004 7.99997C83.9924 9.2273 84.1011 10.4533 84.3257 11.6626C84.4171 11.982 84.5951 12.2733 84.8424 12.5086C85.0897 12.744 85.3977 12.914 85.7364 13.004C87.0051 13.3333 91.9964 13.3333 91.9964 13.3333C94.0902 13.3571 96.1835 13.2525 98.2644 13.02C98.5989 12.9335 98.9059 12.7633 99.1564 12.5253C99.4031 12.29 99.5784 11.9973 99.6664 11.6786C99.8965 10.4713 100.008 9.24436 100 8.0153C100.018 6.78104 99.906 5.54835 99.6671 4.3373V4.33797ZM90.4017 10.2826V5.71797L94.5751 8.00064L90.4017 10.2826Z" fill="#9CA0AB"/>
</g>
<path d="M123.675 16C126.063 16 128 14.0636 128 11.6749C128 9.28626 126.063 7.34985 123.675 7.34985C121.286 7.34985 119.35 9.28626 119.35 11.6749C119.35 14.0636 121.286 16 123.675 16Z" fill="#9CA0AB"/>
<path d="M115.552 13.682C116.66 13.682 117.559 12.7834 117.559 11.6749C117.559 10.5664 116.66 9.66785 115.552 9.66785C114.444 9.66785 113.545 10.5664 113.545 11.6749C113.545 12.7834 114.444 13.682 115.552 13.682Z" fill="#9CA0AB"/>
<path d="M123.674 6.33219C125.209 6.33219 126.454 5.08765 126.454 3.55244C126.454 2.01724 125.209 0.772705 123.674 0.772705C122.139 0.772705 120.895 2.01724 120.895 3.55244C120.895 5.08765 122.139 6.33219 123.674 6.33219Z" fill="#9CA0AB"/>
<path d="M115.552 7.10483C117.514 7.10483 119.105 5.51436 119.105 3.55241C119.105 1.59047 117.514 0 115.552 0C113.59 0 112 1.59047 112 3.55241C112 5.51436 113.59 7.10483 115.552 7.10483Z" fill="#9CA0AB"/>
<path d="M139.222 13.6631H141.465L137.309 2.35571H135.679L131.523 13.6631H133.775L134.567 11.5053H138.43L139.222 13.6631L135.189 9.79977L136.499 6.24735L137.808 9.79977H135.189L139.222 13.6631Z" fill="#9CA0AB"/>
<path d="M147.025 5.9364L144.961 11.5524L142.898 5.9364H140.787L143.623 13.6631H146.29L149.126 5.9364H147.025Z" fill="#9CA0AB"/>
<path d="M150.02 5.9364H152.13V13.6631H150.02V5.9364Z" fill="#9CA0AB"/>
<path d="M151.076 5.06009C151.825 5.06009 152.433 4.45259 152.433 3.7032C152.433 2.95381 151.825 2.34631 151.076 2.34631C150.326 2.34631 149.719 2.95381 149.719 3.7032C149.719 4.45259 150.326 5.06009 151.076 5.06009Z" fill="#9CA0AB"/>
<path d="M159.566 7.64186V5.93633H157.04V3.80676H154.93V5.93633H153.262V7.64186H154.93V10.9681C154.93 12.6831 155.787 13.8233 157.973 13.8233C158.821 13.8233 159.556 13.5123 159.556 13.5123L159.302 11.8445C159.302 11.8445 158.887 11.967 158.378 11.967C157.756 11.967 157.031 11.6937 157.031 10.8362V7.64186H159.566Z" fill="#9CA0AB"/>
<path d="M164.4 11.8916C163.222 11.8916 162.271 10.9588 162.271 9.8092C162.271 8.65961 163.222 7.72675 164.4 7.72675C165.578 7.72675 166.53 8.65961 166.53 9.8092C166.53 10.9588 165.578 11.8916 164.4 11.8916ZM164.4 5.73853C162.12 5.73853 160.264 7.54771 160.264 9.78093C160.264 12.0141 162.12 13.8233 164.4 13.8233C166.681 13.8233 168.537 12.0141 168.537 9.78093C168.537 7.54771 166.681 5.73853 164.4 5.73853Z" fill="#9CA0AB"/>
<defs>
<clipPath id="clip0_1_405">
<rect width="16" height="16" fill="white"/>
</clipPath>
<clipPath id="clip1_1_405">
<rect width="16" height="16" fill="white" transform="translate(28)"/>
</clipPath>
<clipPath id="clip2_1_405">
<rect width="16" height="16" fill="white" transform="translate(56)"/>
</clipPath>
<clipPath id="clip3_1_405">
<rect width="16" height="16" fill="white" transform="translate(84)"/>
</clipPath>
</defs>
</svg>
