<svg width="40" height="35" viewBox="0 0 40 35" fill="none" xmlns="http://www.w3.org/2000/svg">
<path d="M12.6203 7.37572C13.3839 8.20461 13.7657 9.21111 13.7657 10.3952C13.7657 11.5794 13.3839 12.5859 12.6203 13.4147C11.8568 14.2436 10.9296 14.6581 9.83873 14.6581C8.7479 14.6581 7.82071 14.2436 7.05712 13.4147C6.29354 12.5859 5.91175 11.5794 5.91175 10.3952C5.91175 9.21111 6.29354 8.20461 7.05712 7.37572C7.82071 6.54683 8.7479 6.1324 9.83873 6.1324C10.9296 6.1324 11.8568 6.54683 12.6203 7.37572ZM34.7096 18.9209V28.8675H5.91175V24.6047L12.4567 17.5L15.7292 21.0523L26.2012 9.68476L34.7096 18.9209ZM36.6731 3.2905H3.94826C3.771 3.2905 3.61761 3.36081 3.48807 3.50142C3.35854 3.64204 3.29377 3.80855 3.29377 4.00098V30.999C3.29377 31.1914 3.35854 31.3579 3.48807 31.4985C3.61761 31.6391 3.771 31.7094 3.94826 31.7094H36.6731C36.8504 31.7094 37.0038 31.6391 37.1333 31.4985C37.2628 31.3579 37.3276 31.1914 37.3276 30.999V4.00098C37.3276 3.80855 37.2628 3.64204 37.1333 3.50142C37.0038 3.36081 36.8504 3.2905 36.6731 3.2905ZM39.9456 4.00098V30.999C39.9456 31.9759 39.6252 32.8121 38.9843 33.5078C38.3434 34.2035 37.573 34.5513 36.6731 34.5513H3.94826C3.04833 34.5513 2.27794 34.2035 1.63707 33.5078C0.996209 32.8121 0.675781 31.9759 0.675781 30.999V4.00098C0.675781 3.02407 0.996209 2.18779 1.63707 1.49212C2.27794 0.796441 3.04833 0.448608 3.94826 0.448608H36.6731C37.573 0.448608 38.3434 0.796441 38.9843 1.49212C39.6252 2.18779 39.9456 3.02407 39.9456 4.00098Z" fill="#CDCFD6"/>
</svg>
