<svg width="32" height="28" viewBox="0 0 32 28" fill="none" xmlns="http://www.w3.org/2000/svg">
<path d="M0.00390625 4C0.00390625 2.93913 0.425334 1.92172 1.17548 1.17157C1.92563 0.421427 2.94304 0 4.00391 0H28.0039C29.0648 0 30.0822 0.421427 30.8323 1.17157C31.5825 1.92172 32.0039 2.93913 32.0039 4V24C32.0039 25.0609 31.5825 26.0783 30.8323 26.8284C30.0822 27.5786 29.0648 28 28.0039 28H4.00391C2.94304 28 1.92563 27.5786 1.17548 26.8284C0.425334 26.0783 0.00390625 25.0609 0.00390625 24V4ZM2.00391 22V24C2.00391 24.5304 2.21462 25.0391 2.58969 25.4142C2.96477 25.7893 3.47347 26 4.00391 26H28.0039C28.5343 26 29.0431 25.7893 29.4181 25.4142C29.7932 25.0391 30.0039 24.5304 30.0039 24V17L22.4499 13.106C22.2624 13.012 22.05 12.9795 21.8429 13.0128C21.6358 13.0462 21.4444 13.1439 21.2959 13.292L13.8759 20.712L8.55591 17.168C8.36383 17.0401 8.13343 16.9826 7.90379 17.0052C7.67414 17.0278 7.45937 17.1291 7.29591 17.292L2.00391 22ZM12.0039 9C12.0039 8.20435 11.6878 7.44129 11.1252 6.87868C10.5626 6.31607 9.79956 6 9.00391 6C8.20826 6 7.4452 6.31607 6.88259 6.87868C6.31998 7.44129 6.00391 8.20435 6.00391 9C6.00391 9.79565 6.31998 10.5587 6.88259 11.1213C7.4452 11.6839 8.20826 12 9.00391 12C9.79956 12 10.5626 11.6839 11.1252 11.1213C11.6878 10.5587 12.0039 9.79565 12.0039 9Z" fill="#CDCFD6"/>
</svg>
